<svg width="150" height="32" viewBox="0 0 150 32" fill="none" xmlns="http://www.w3.org/2000/svg">
<path fill-rule="evenodd" clip-rule="evenodd" d="M17.6026 8.1492C17.6026 10.4421 15.7439 12.3008 13.4511 12.3008C11.1582 12.3008 9.29947 10.4421 9.29947 8.1492C9.29947 5.85635 11.1582 3.99763 13.4511 3.99763C15.7439 3.99763 17.6026 5.85635 17.6026 8.1492ZM17.6026 17.7808C17.6026 20.0737 15.7439 21.9324 13.4511 21.9324C11.1582 21.9324 9.29947 20.0737 9.29947 17.7808C9.29947 15.488 11.1582 13.6293 13.4511 13.6293C15.7439 13.6293 17.6026 15.488 17.6026 17.7808ZM4.15158 21.9324C6.44443 21.9324 8.30315 20.0737 8.30315 17.7808C8.30315 15.488 6.44443 13.6293 4.15158 13.6293C1.85872 13.6293 0 15.488 0 17.7808C0 20.0737 1.85872 21.9324 4.15158 21.9324ZM26.9023 17.7808C26.9023 20.0737 25.0435 21.9324 22.7507 21.9324C20.4578 21.9324 18.5991 20.0737 18.5991 17.7808C18.5991 15.488 20.4578 13.6293 22.7507 13.6293C25.0435 13.6293 26.9023 15.488 26.9023 17.7808ZM31.0539 31.564C33.3467 31.564 35.2054 29.7053 35.2054 27.4125C35.2054 25.1196 33.3467 23.2609 31.0539 23.2609C28.761 23.2609 26.9023 25.1196 26.9023 27.4125C26.9023 29.7053 28.761 31.564 31.0539 31.564ZM18.5991 8.1492C18.5991 5.85635 20.4578 3.99763 22.7507 3.99763H31.0538C33.3467 3.99763 35.2054 5.85635 35.2054 8.1492C35.2054 10.4421 33.3467 12.3008 31.0538 12.3008H22.7507C20.4578 12.3008 18.5991 10.4421 18.5991 8.1492ZM13.4511 23.2609C11.1582 23.2609 9.29947 25.1196 9.29947 27.4125C9.29947 29.7053 11.1582 31.564 13.4511 31.564H21.7542C24.0471 31.564 25.9058 29.7053 25.9058 27.4125C25.9058 25.1196 24.0471 23.2609 21.7542 23.2609H13.4511Z" fill="url(#paint0_linear_1560_179)"/>
<path d="M55.0359 27.0429C53.2055 27.0429 51.5846 26.668 50.1732 25.9182C48.7838 25.1463 47.6922 24.0988 46.8983 22.7756C46.1264 21.4304 45.7405 19.8866 45.7405 18.1444C45.7405 16.7771 45.961 15.5311 46.4021 14.4064C46.8431 13.2817 47.4606 12.3114 48.2546 11.4954C49.0485 10.6574 49.9857 10.0178 51.0663 9.57678C52.169 9.11366 53.3599 8.8821 54.6389 8.8821C55.8078 8.8821 56.8773 9.10263 57.8477 9.5437C58.8401 9.98476 59.7001 10.5912 60.4279 11.3631C61.1557 12.1129 61.707 13.0171 62.0819 14.0756C62.4788 15.1121 62.6663 16.2479 62.6442 17.4828L62.6112 18.9383H48.5192L47.7253 16.1266H59.204L58.7078 16.6889V15.9281C58.6416 15.2665 58.4211 14.6821 58.0462 14.1749C57.6713 13.6456 57.1861 13.2376 56.5907 12.9509C56.0173 12.6422 55.3777 12.4878 54.672 12.4878C53.5914 12.4878 52.6762 12.6973 51.9264 13.1163C51.1766 13.5133 50.6032 14.1087 50.2063 14.9026C49.8314 15.6965 49.6439 16.6779 49.6439 17.8467C49.6439 18.9714 49.8755 19.9528 50.3386 20.7908C50.8237 21.6288 51.5074 22.2794 52.3895 22.7425C53.2716 23.2056 54.2971 23.4372 55.4659 23.4372C56.2819 23.4372 57.0317 23.3049 57.7154 23.0402C58.4211 22.7756 59.1709 22.3015 59.9648 21.6178L61.9496 24.3965C61.3541 24.9478 60.6705 25.422 59.8986 25.8189C59.1488 26.1938 58.3549 26.4916 57.5169 26.7121C56.6789 26.9326 55.8519 27.0429 55.0359 27.0429ZM64.0315 26.7121V9.27906H68.0011L68.0673 12.8186L67.4057 13.0832C67.6041 12.5098 67.9019 11.9806 68.2988 11.4954C68.6958 10.9882 69.1699 10.5471 69.7212 10.1722C70.2726 9.79731 70.857 9.51062 71.4745 9.31214C72.092 9.09161 72.7315 8.98134 73.3931 8.98134C74.3414 8.98134 75.1794 9.13571 75.9072 9.44446C76.6349 9.7532 77.2414 10.2273 77.7265 10.8669C78.2338 11.5064 78.6197 12.3224 78.8843 13.3148L78.2558 13.1825L78.4874 12.6532C78.752 12.1239 79.1049 11.6387 79.5459 11.1977C79.987 10.7566 80.4832 10.3707 81.0345 10.0399C81.5858 9.68704 82.1592 9.4224 82.7547 9.24598C83.3722 9.06955 83.9676 8.98134 84.541 8.98134C85.8642 8.98134 86.9668 9.24598 87.8489 9.77525C88.7311 10.3045 89.3927 11.1095 89.8337 12.1901C90.2748 13.2707 90.4953 14.6049 90.4953 16.1927V26.7121H86.4265V16.4574C86.4265 15.1342 86.1619 14.1528 85.6326 13.5133C85.1254 12.8737 84.3315 12.554 83.2509 12.554C82.6775 12.554 82.1482 12.6532 81.663 12.8517C81.1779 13.0281 80.7478 13.2927 80.3729 13.6456C80.0201 13.9764 79.7444 14.3733 79.5459 14.8365C79.3475 15.2775 79.2482 15.7737 79.2482 16.325V26.7121H75.1794V16.4243C75.1794 15.1673 74.9037 14.2079 74.3524 13.5463C73.8231 12.8848 73.0623 12.554 72.0699 12.554C71.4965 12.554 70.9672 12.6532 70.4821 12.8517C70.019 13.0281 69.6 13.2927 69.225 13.6456C68.8722 13.9764 68.5965 14.3623 68.3981 14.8034C68.1996 15.2444 68.1003 15.7296 68.1003 16.2589V26.7121H64.0315ZM102.456 27.0429C101.684 27.0429 100.934 26.9326 100.207 26.7121C99.4788 26.4695 98.8062 26.1497 98.1887 25.7528C97.5933 25.3558 97.0971 24.9148 96.7001 24.4296C96.3032 23.9224 96.0385 23.4151 95.9062 22.9079L96.8655 22.4779L96.7663 26.6129H92.8629V2.23307H96.8986V13.2817L96.2039 12.984C96.3142 12.4547 96.5568 11.9585 96.9317 11.4954C97.3066 11.0102 97.7807 10.5802 98.3541 10.2053C98.9275 9.80833 99.556 9.49959 100.24 9.27906C100.923 9.03647 101.629 8.91518 102.357 8.91518C103.9 8.91518 105.268 9.31214 106.459 10.1061C107.672 10.8779 108.62 11.9475 109.303 13.3148C110.009 14.66 110.362 16.2148 110.362 17.979C110.362 19.7212 110.02 21.276 109.337 22.6433C108.653 24.0106 107.705 25.0912 106.492 25.8851C105.301 26.657 103.956 27.0429 102.456 27.0429ZM101.629 23.4703C102.555 23.4703 103.382 23.2387 104.11 22.7756C104.838 22.2904 105.411 21.6399 105.83 20.8239C106.249 19.9859 106.459 19.0376 106.459 17.979C106.459 16.8984 106.249 15.9501 105.83 15.1342C105.433 14.2962 104.871 13.6456 104.143 13.1825C103.415 12.7194 102.577 12.4878 101.629 12.4878C100.659 12.4878 99.8096 12.7194 99.0819 13.1825C98.3541 13.6456 97.7807 14.2962 97.3617 15.1342C96.9427 15.9501 96.7332 16.8984 96.7332 17.979C96.7332 19.0376 96.9427 19.9859 97.3617 20.8239C97.7807 21.6399 98.3541 22.2904 99.0819 22.7756C99.8096 23.2387 100.659 23.4703 101.629 23.4703ZM121.003 27.0429C119.172 27.0429 117.552 26.668 116.14 25.9182C114.751 25.1463 113.659 24.0988 112.865 22.7756C112.093 21.4304 111.707 19.8866 111.707 18.1444C111.707 16.7771 111.928 15.5311 112.369 14.4064C112.81 13.2817 113.428 12.3114 114.222 11.4954C115.015 10.6574 115.953 10.0178 117.033 9.57678C118.136 9.11366 119.327 8.8821 120.606 8.8821C121.775 8.8821 122.844 9.10263 123.815 9.5437C124.807 9.98476 125.667 10.5912 126.395 11.3631C127.123 12.1129 127.674 13.0171 128.049 14.0756C128.446 15.1121 128.633 16.2479 128.611 17.4828L128.578 18.9383H114.486L113.692 16.1266H125.171L124.675 16.6889V15.9281C124.609 15.2665 124.388 14.6821 124.013 14.1749C123.638 13.6456 123.153 13.2376 122.558 12.9509C121.984 12.6422 121.345 12.4878 120.639 12.4878C119.558 12.4878 118.643 12.6973 117.893 13.1163C117.144 13.5133 116.57 14.1087 116.173 14.9026C115.798 15.6965 115.611 16.6779 115.611 17.8467C115.611 18.9714 115.842 19.9528 116.306 20.7908C116.791 21.6288 117.474 22.2794 118.356 22.7425C119.239 23.2056 120.264 23.4372 121.433 23.4372C122.249 23.4372 122.999 23.3049 123.682 23.0402C124.388 22.7756 125.138 22.3015 125.932 21.6178L127.917 24.3965C127.321 24.9478 126.637 25.422 125.866 25.8189C125.116 26.1938 124.322 26.4916 123.484 26.7121C122.646 26.9326 121.819 27.0429 121.003 27.0429ZM138.103 27.0429C136.537 27.0429 135.137 26.657 133.902 25.8851C132.689 25.0912 131.719 24.0216 130.991 22.6764C130.285 21.3091 129.932 19.7433 129.932 17.979C129.932 16.2368 130.285 14.6821 130.991 13.3148C131.697 11.9475 132.656 10.8779 133.869 10.1061C135.104 9.31214 136.493 8.91518 138.037 8.91518C138.875 8.91518 139.68 9.0475 140.452 9.31214C141.246 9.57678 141.951 9.94065 142.569 10.4038C143.208 10.8448 143.705 11.341 144.057 11.8924C144.432 12.4437 144.631 13.0171 144.653 13.6125L143.561 13.7448V2.23307H147.63V26.7121H143.694L143.594 22.6433L144.388 22.7094C144.366 23.2387 144.179 23.757 143.826 24.2642C143.473 24.7714 142.999 25.2345 142.403 25.6535C141.83 26.0725 141.168 26.4144 140.419 26.679C139.669 26.9216 138.897 27.0429 138.103 27.0429ZM138.864 23.6026C139.812 23.6026 140.65 23.371 141.378 22.9079C142.106 22.4227 142.668 21.7612 143.065 20.9231C143.484 20.0631 143.694 19.0817 143.694 17.979C143.694 16.8764 143.484 15.906 143.065 15.068C142.668 14.23 142.106 13.5684 141.378 13.0832C140.65 12.5981 139.812 12.3555 138.864 12.3555C137.894 12.3555 137.044 12.5981 136.317 13.0832C135.611 13.5684 135.049 14.23 134.63 15.068C134.211 15.906 134.001 16.8764 134.001 17.979C134.001 19.0817 134.211 20.0631 134.63 20.9231C135.049 21.7612 135.611 22.4227 136.317 22.9079C137.044 23.371 137.894 23.6026 138.864 23.6026Z" fill="#280A5F"/>
<defs>
<linearGradient id="paint0_linear_1560_179" x1="-0.0172639" y1="20.4816" x2="33.2112" y2="20.4816" gradientUnits="userSpaceOnUse">
<stop stop-color="#F059FC"/>
<stop offset="1" stop-color="#16BBFD"/>
</linearGradient>
</defs>
</svg>
