<svg width="412" height="323" viewBox="0 0 412 323" fill="none" xmlns="http://www.w3.org/2000/svg">
<path fill-rule="evenodd" clip-rule="evenodd" d="M206 48.6446C206 75.5103 184.248 97.2893 157.415 97.2893C130.582 97.2893 108.83 75.5103 108.83 48.6446C108.83 21.7789 130.582 0 157.415 0C184.248 0 206 21.7789 206 48.6446ZM206 161.5C206 188.366 184.248 210.144 157.415 210.144C130.582 210.144 108.83 188.366 108.83 161.5C108.83 134.634 130.582 112.855 157.415 112.855C184.248 112.855 206 134.634 206 161.5ZM48.5849 210.144C75.4176 210.144 97.1698 188.366 97.1698 161.5C97.1698 134.634 75.4176 112.855 48.5849 112.855C21.7522 112.855 0 134.634 0 161.5C0 188.366 21.7522 210.144 48.5849 210.144ZM314.83 161.5C314.83 188.366 293.078 210.144 266.245 210.144C239.412 210.144 217.66 188.366 217.66 161.5C217.66 134.634 239.412 112.855 266.245 112.855C293.078 112.855 314.83 134.634 314.83 161.5ZM363.415 323C390.248 323 412 301.221 412 274.355C412 247.49 390.248 225.711 363.415 225.711C336.582 225.711 314.83 247.49 314.83 274.355C314.83 301.221 336.582 323 363.415 323ZM217.66 48.6446C217.66 21.7789 239.439 0 266.305 0H363.355C390.221 0 412 21.7789 412 48.6446C412 75.5103 390.221 97.2893 363.355 97.2893H266.305C239.439 97.2893 217.66 75.5103 217.66 48.6446ZM157.475 225.711C130.609 225.711 108.83 247.49 108.83 274.355C108.83 301.221 130.609 323 157.475 323H254.525C281.391 323 303.17 301.221 303.17 274.355C303.17 247.49 281.391 225.711 254.525 225.711H157.475Z" fill="white"/>
</svg>
